<svg xmlns="http://www.w3.org/2000/svg" viewBox="0 0 1480 920" font-family="'Red Hat Text', system-ui, sans-serif" role="img">
<defs><marker id="a" viewBox="0 0 10 10" refX="8.5" refY="5" markerWidth="9" markerHeight="9" orient="auto-start-reverse"><path d="M0,0 L10,5 L0,10 z" fill="#555"/></marker><marker id="am" viewBox="0 0 10 10" refX="8.5" refY="5" markerWidth="9" markerHeight="9" orient="auto-start-reverse"><path d="M0,0 L10,5 L0,10 z" fill="#2f5f3d"/></marker></defs>
<rect x="360" y="70" width="700" height="360" rx="12" fill="#fafafa" stroke="#ddd"/>
<text x="372" y="90" font-size="12" font-weight="700" fill="#1d1d1d">code-ci.yml  —  behavior gates (what the system DOES)</text>
<rect x="360" y="460" width="700" height="200" rx="12" fill="#f4f8f5" stroke="#ddd"/>
<text x="372" y="480" font-size="12" font-weight="700" fill="#1d1d1d">supply-chain.yml  —  provenance gate (what the system CONTAINS)  [ch.31, additive]</text>
<rect x="1120" y="300" width="320" height="360" rx="12" fill="#ffffff" stroke="#ddd"/>
<text x="1132" y="320" font-size="12" font-weight="700" fill="#1d1d1d">deferred (named, not built)</text>
<rect x="60" y="400" width="230" height="90" rx="9" fill="#111111" stroke="#111111" stroke-width="2"/>
<text x="175.0" y="435.5" font-size="13.5" font-weight="700" fill="#ffffff" text-anchor="middle">git push / PR</text>
<text x="175.0" y="452.5" font-size="11.5" fill="#dddddd" text-anchor="middle">any branch</text>
<text x="175.0" y="467.5" font-size="11.5" fill="#dddddd" text-anchor="middle">(path-filtered jobs)</text>
<rect x="390" y="120" width="300" height="80" rx="9" fill="#eaf4ec" stroke="#3d7a4e" stroke-width="2"/>
<text x="540.0" y="158.0" font-size="13.5" font-weight="700" fill="#111111" text-anchor="middle">equivalence-gate</text>
<text x="540.0" y="175.0" font-size="11.5" fill="#555555" text-anchor="middle">monolith baseline — Newman suite</text>
<rect x="390" y="215" width="300" height="120" rx="9" fill="#ffffff" stroke="#111111" stroke-width="2"/>
<text x="540.0" y="258.0" font-size="13.5" font-weight="700" fill="#111111" text-anchor="middle">notification / inventory /</text>
<text x="540.0" y="275.0" font-size="11.5" fill="#555555" text-anchor="middle">payment / shipping</text>
<text x="540.0" y="290.0" font-size="11.5" fill="#555555" text-anchor="middle">-equivalence-gate</text>
<text x="540.0" y="305.0" font-size="11.5" fill="#555555" text-anchor="middle">one per extracted seam</text>
<rect x="730" y="120" width="300" height="80" rx="9" fill="#ffffff" stroke="#111111" stroke-width="2"/>
<text x="880.0" y="158.0" font-size="13.5" font-weight="700" fill="#111111" text-anchor="middle">order-gateway-contract-gate</text>
<text x="880.0" y="175.0" font-size="11.5" fill="#555555" text-anchor="middle">CQRS + GraphQL aggregation</text>
<rect x="730" y="215" width="300" height="120" rx="9" fill="#ffffff" stroke="#111111" stroke-width="2"/>
<text x="880.0" y="265.5" font-size="13.5" font-weight="700" fill="#111111" text-anchor="middle">schema-registry-gate</text>
<text x="880.0" y="282.5" font-size="11.5" fill="#555555" text-anchor="middle">Avro + Apicurio demonstrator</text>
<text x="880.0" y="297.5" font-size="11.5" fill="#555555" text-anchor="middle">builds examples/09</text>
<rect x="390" y="350" width="640" height="60" rx="9" fill="#f4f4f4" stroke="#888888" stroke-width="1.5"/>
<text x="710.0" y="378.0" font-size="13.5" font-weight="700" fill="#111111" text-anchor="middle">Each gate boots the service(s) + infra, then drives the</text>
<text x="710.0" y="395.0" font-size="11.5" fill="#555555" text-anchor="middle">behavior-equivalence suite. Green is the merge bar.</text>
<rect x="385" y="520" width="150" height="110" rx="9" fill="#ffffff" stroke="#999999" stroke-width="1.5"/>
<text x="460.0" y="573.0" font-size="13.5" font-weight="700" fill="#111111" text-anchor="middle">mvn package</text>
<text x="460.0" y="590.0" font-size="11.5" fill="#555555" text-anchor="middle">runtime closure</text>
<rect x="555" y="520" width="160" height="110" rx="9" fill="#eaf4ec" stroke="#3d7a4e" stroke-width="2"/>
<text x="635.0" y="573.0" font-size="13.5" font-weight="700" fill="#111111" text-anchor="middle">syft</text>
<text x="635.0" y="590.0" font-size="11.5" fill="#555555" text-anchor="middle">CycloneDX SBOM</text>
<rect x="735" y="520" width="150" height="110" rx="9" fill="#ffffff" stroke="#111111" stroke-width="2"/>
<text x="810.0" y="573.0" font-size="13.5" font-weight="700" fill="#111111" text-anchor="middle">grype</text>
<text x="810.0" y="590.0" font-size="11.5" fill="#555555" text-anchor="middle">scan vs CVE DB</text>
<rect x="905" y="520" width="135" height="110" rx="9" fill="#111111" stroke="#111111" stroke-width="2"/>
<text x="972.5" y="573.0" font-size="13.5" font-weight="700" fill="#ffffff" text-anchor="middle">policy.yaml</text>
<text x="972.5" y="590.0" font-size="11.5" fill="#dddddd" text-anchor="middle">fail-on: High</text>
<rect x="360" y="690" width="700" height="70" rx="9" fill="#ffffff" stroke="#999999" stroke-width="1.5"/>
<text x="710.0" y="730.5" font-size="13.5" font-weight="700" fill="#111111" text-anchor="middle">pages.yml  —  build + deploy the Jekyll site to GitHub Pages</text>
<rect x="1145" y="350" width="270" height="80" rx="9" fill="#ffffff" stroke="#999999" stroke-width="1.5" stroke-dasharray="6 4"/>
<text x="1280.0" y="388.0" font-size="13.5" font-weight="700" fill="#111111" text-anchor="middle">image registry push</text>
<text x="1280.0" y="405.0" font-size="11.5" fill="#555555" text-anchor="middle">ghcr.io / quay.io</text>
<rect x="1145" y="450" width="270" height="90" rx="9" fill="#ffffff" stroke="#999999" stroke-width="1.5" stroke-dasharray="6 4"/>
<text x="1280.0" y="485.5" font-size="13.5" font-weight="700" fill="#111111" text-anchor="middle">GitOps operator</text>
<text x="1280.0" y="502.5" font-size="11.5" fill="#555555" text-anchor="middle">Argo CD / Flux reconciles</text>
<text x="1280.0" y="517.5" font-size="11.5" fill="#555555" text-anchor="middle">deploy/k8s -&gt; cluster</text>
<rect x="1145" y="560" width="270" height="80" rx="9" fill="#ffffff" stroke="#999999" stroke-width="1.5" stroke-dasharray="6 4"/>
<text x="1280.0" y="598.0" font-size="13.5" font-weight="700" fill="#111111" text-anchor="middle">Istio weighted canary</text>
<text x="1280.0" y="615.0" font-size="11.5" fill="#555555" text-anchor="middle">(ch.30 deferred traffic-shaping)</text>
<path d="M232.6315789473684,400.0 L488.7719298245614,200.0" fill="none" stroke="#2f5f3d" stroke-width="2" marker-end="url(#am)"/>
<path d="M273.65384615384613,490.0 L385.0,540.7894736842105" fill="none" stroke="#2f5f3d" stroke-width="2" marker-end="url(#am)"/>
<path d="M260.9821428571429,490.0 L643.125,690.0" fill="none" stroke="#2f5f3d" stroke-width="2" marker-end="url(#am)"/>
<path d="M535.0,575.0 L555.0,575.0" fill="none" stroke="#2f5f3d" stroke-width="2" marker-end="url(#am)"/>
<path d="M715.0,575.0 L735.0,575.0" fill="none" stroke="#2f5f3d" stroke-width="2" marker-end="url(#am)"/>
<path d="M885.0,575.0 L905.0,575.0" fill="none" stroke="#2f5f3d" stroke-width="2" marker-end="url(#am)"/>
<path d="M1040.0,534.390243902439 L1213.5135135135135,430.0" fill="none" stroke="#555" stroke-width="2" stroke-dasharray="5 4" marker-end="url(#a)"/>
<text x="1132.7567567567567" y="476.1951219512195" font-size="11" fill="#ffffff" stroke="#ffffff" stroke-width="3" paint-order="stroke" text-anchor="middle">would feed</text>
<text x="1132.7567567567567" y="476.1951219512195" font-size="11" fill="#555" text-anchor="middle">would feed</text>
<path d="M1280.0,430.0 L1280.0,450.0" fill="none" stroke="#555" stroke-width="2" stroke-dasharray="5 4" marker-end="url(#a)"/>
<path d="M1280.0,540.0 L1280.0,560.0" fill="none" stroke="#555" stroke-width="2" stroke-dasharray="5 4" marker-end="url(#a)"/>
<text x="740.0" y="34" font-size="16" fill="#1d1d1d" text-anchor="middle" font-weight="700">ch.31 — the delivery pipeline this repo ships: behavior gates + a provenance gate, drawn against what is deferred</text>
<text x="60" y="896" font-size="10" fill="#777777" text-anchor="start">Real: code-ci.yml (7 jobs), supply-chain.yml, pages.yml. Dashed: a registry push + GitOps operator + Istio canary this repo names but does not yet run.</text>
</svg>